<?xml version="1.0" encoding="utf-8"?>
<svg version="1.1" xmlns:xlink="http://www.w3.org/1999/xlink" width="42px" height="42px" xmlns="http://www.w3.org/2000/svg">
  <g transform="matrix(1 0 0 1 -26 -201 )">
    <path d="M 47 201  C 58.76 201  68 210.24  68 222  C 68 233.76  58.76 243  47 243  C 35.24 243  26 233.76  26 222  C 26 210.24  35.24 201  47 201  Z " fill-rule="nonzero" fill="#ffffff" stroke="none" />
    <path d="M 47 201.5  C 58.48 201.5  67.5 210.52  67.5 222  C 67.5 233.48  58.48 242.5  47 242.5  C 35.52 242.5  26.5 233.48  26.5 222  C 26.5 210.52  35.52 201.5  47 201.5  Z " stroke-width="1" stroke="#797979" fill="none" />
  </g>
</svg>